# xmcd
#
# Track frame offsets:
#	150
#	27222
#	41800
#	63000
#	72282
#	85935
#	105710
#	124870
#	176307
#	233487
#
# Disc length: 3862 seconds
# Revision: 0
# Processed by: cddbd v1.5.2PL0 Copyright (c) Steve Scherf et al.
# Submitted via: dBpowerAMP V12.0
#
DISCID=780f140a
DTITLE=Legendary Pink Dots, The - Stained Glass Soma Fountains, Disc 2
DYEAR=1997
DGENRE=Avantgarde
TTITLE0=Waiting for the Call/You 'n' Me (9/80)
TTITLE1=April's Song (8/80)
TTITLE2=Frosty (9/80)
TTITLE3=Defeated (9/80)
TTITLE4=A Message from Our Sponsor (First Version)
TTITLE5=Ice Baby Cometh
TTITLE6=Hanging Gardens (Flowmotion)
TTITLE7=Jack/Thursday Night Fever #1/Die With Your Eyes On/Opus Dei
TTITLE8=Premonition 18 (Part 1)
TTITLE9=Premonition 18 (Part 2)
EXTD=
EXTT0=
EXTT1=
EXTT2=
EXTT3=
EXTT4=
EXTT5=
EXTT6=
EXTT7=
EXTT8=
EXTT9=
PLAYORDER=
